<?xml version="1.0" standalone="no"?><!DOCTYPE svg PUBLIC "-//W3C//DTD SVG 1.1//EN" "http://www.w3.org/Graphics/SVG/1.1/DTD/svg11.dtd"><svg t="1721884897105" class="icon" viewBox="0 0 1024 1024" version="1.1" xmlns="http://www.w3.org/2000/svg" p-id="49810" xmlns:xlink="http://www.w3.org/1999/xlink" width="200" height="200"><path d="M512 512m-512 0a512 512 0 1 0 1024 0 512 512 0 1 0-1024 0Z" fill="#FF655C" p-id="49811"></path><path d="M512 201.386667c31.744-0.477867 25.156267 31.914667 25.156267 62.2592 0 12.765867 2.1504 28.910933-2.8672 37.1712-3.584 5.870933-9.557333 9.489067-17.749334 10.8544a19.8656 19.8656 0 0 1-11.946666-2.594134c-17.5104-8.874667-12.629333-34.952533-12.629334-60.279466 0-10.615467-2.218667-24.917333 1.160534-33.143467 3.720533-9.079467 9.693867-10.478933 18.875733-14.301867z m-162.338133 54.545066a25.258667 25.258667 0 0 1 16.5888 5.12l31.744 38.912c5.256533 6.7584 13.141333 13.073067 16.554666 21.4016 4.778667 11.707733-2.2528 23.108267-9.4208 27.4432-7.611733 4.608-19.319467 3.2768-25.736533-1.4336-7.611733-5.563733-13.653333-15.9744-19.456-23.415466l-17.408-21.435734c-8.055467-10.3424-21.128533-22.4256-8.567467-38.570666 3.959467-5.12 9.045333-5.358933 15.701334-8.021334z m324.949333 7.714134c16.384-0.273067 31.982933 12.253867 24.849067 30.037333-3.447467 8.6016-11.6736 14.062933-17.134934 20.821333l-22.016 24.576c-3.8912 4.846933-8.226133 11.127467-13.4144 14.609067-5.802667 3.857067-17.2032 5.12-24.029866 1.1264-8.874667-5.188267-15.803733-19.217067-8.533334-31.163733l21.7088-24.2688 17.134934-19.1488c3.754667-4.642133 7.714133-10.24 12.868266-13.448534l8.533334-3.140266z m-23.4496 400.657066h-279.7568v-128.3072c0-25.838933-1.706667-54.442667 4.266667-74.581333 11.195733-37.751467 32.836267-64 63.453866-82.295467 13.380267-8.021333 28.4672-13.653333 46.2848-17.442133l17.749334-1.706667 16.2816-0.3072c12.117333 1.877333 23.108267 2.525867 33.450666 5.7344 47.274667 14.677333 79.837867 48.093867 94.0032 96.017067 5.9392 20.0704 4.266667 48.503467 4.266667 74.308267v128.580266zM258.218667 401.988267c8.157867-0.2048 14.0288 1.672533 20.5824 3.140266l37.717333 7.406934c9.489067 2.218667 19.524267 2.3552 25.429333 8.021333 6.075733 5.802667 10.376533 18.158933 4.573867 27.716267a24.098133 24.098133 0 0 1-15.428267 10.8544c-7.099733 1.570133-14.5408-1.2288-20.2752-2.56L273.066667 449.1264c-9.693867-2.2528-19.968-2.56-26.624-7.714133-9.216-7.168-10.581333-25.941333-0.8192-33.723734 3.754667-3.003733 7.5776-3.584 12.561066-5.700266z m501.5552 11.400533c18.978133-0.2048 31.812267 19.729067 20.002133 35.7376-6.417067 8.704-17.6128 8.3968-30.583467 10.8544l-38.2976 5.7344c-5.700267 1.092267-13.141333 3.413333-19.729066 1.979733a23.278933 23.278933 0 0 1-16.554667-12.561066 22.971733 22.971733 0 0 1 10.8544-29.696c5.3248-2.389333 12.0832-2.184533 18.568533-3.4816l38.024534-5.973334 17.7152-2.594133z m-415.812267 270.062933h273.749333c34.816 0 65.2288-6.212267 78.916267 16.5888 2.56 4.266667 5.3248 11.264 3.9936 19.114667-5.905067 34.747733-42.734933 27.7504-82.0224 27.7504h-253.781333c-9.728 0-21.572267 1.058133-28.8768-1.706667-15.633067-5.973333-28.672-26.8288-16.827734-46.318933a33.6896 33.6896 0 0 1 15.428267-13.141333l9.4208-2.286934z" fill="#FFFFFF" p-id="49812"></path></svg>