<?xml version="1.0" standalone="no"?><!DOCTYPE svg PUBLIC "-//W3C//DTD SVG 1.1//EN" "http://www.w3.org/Graphics/SVG/1.1/DTD/svg11.dtd"><svg t="1721884573653" class="icon" viewBox="0 0 1030 1024" version="1.1" xmlns="http://www.w3.org/2000/svg" p-id="5495" xmlns:xlink="http://www.w3.org/1999/xlink" width="201.171875" height="200"><path d="M1019.725682 549.075753c0 262.284831-212.671078 474.924247-474.924247 474.924247h-63.323233c-262.284831 0-474.924247-212.639416-474.924247-474.924247v-63.323233c0-262.284831 212.639416-474.924247 474.924247-474.924247h63.323233c262.253169 0 474.924247 212.639416 474.924247 474.924247v63.323233z" fill="#3FB582" p-id="5496"></path><path d="M703.489456 175.31037a88.589203 88.589203 0 0 1 88.589203 87.101107v185.758704l-1.868035 57.560819a202.539361 202.539361 0 0 0-105.338198-29.318657c-112.050461 0-202.855977 90.425577-202.855977 201.93779a201.779482 201.779482 0 0 0 100.240678 174.265537l-95.301466-0.633232H253.45124a88.652526 88.652526 0 0 1-88.589203-87.132769V263.867912a88.589203 88.589203 0 0 1 87.132769-88.557542h451.49465z m-315.381361 451.747944h-101.000557a23.017995 23.017995 0 1 0 0 46.035991h101.000557a22.986334 22.986334 0 1 0 0-46.035991z m67.344258-166.540102H287.107538a23.049657 23.049657 0 1 0 0 46.067652h168.344815a23.049657 23.049657 0 0 0 0-46.067652z m163.595572-166.508441H286.569291a23.017995 23.017995 0 0 0 0.569909 46.067652h332.510296a23.049657 23.049657 0 0 0-0.601571-46.067652z" fill="#FFFFFF" p-id="5497"></path><path d="M684.999072 502.78647a176.450189 176.450189 0 1 1-0.094984 352.932038 176.450189 176.450189 0 0 1 0.094984-352.932038z m18.585369 79.787273a17.730505 17.730505 0 0 0-17.730505 17.762167v84.473193l-50.785233 60.093748-0.316616 0.443262a17.793828 17.793828 0 0 0 2.406283 24.601076c7.472141 6.300662 18.680354 5.382475 25.012677-2.089666l53.033208-62.753324a17.793828 17.793828 0 0 0 6.110692-13.424526v-91.343763l-0.031662-0.506586a17.730505 17.730505 0 0 0-17.698844-17.255581z" fill="#FFFFFF" p-id="5498"></path></svg>